PathFileType	4	(X/Y/Z)	Patient4_TMGait_0pt3_02_right_29.trc.trc
DataRate	CameraRate	NumFrames	NumMarkers	Units	OrigDataRate	OrigDataStartFrame	OrigNumFrames
49.645390070922	49.645390070922	4	33	mm	49.645390070922	89	       141
Frame#	Time	Sacral			L.Shoulder			Chest			R.Shoulder			Neck			R.ASIS			L.ASIS			R.Thigh.Superior			R.Thigh.Lateral			R.Thigh.Inferior			R.Patella			L.Thigh.Superior			L.Thigh.Lateral			L.Thigh.Inferior			L.Patella			L.Shank.Superior			L.Shank.Lateral			L.Shank.Inferior			R.Shank.Superior			R.Shank.Lateral			R.Shank.Inferior			R.Heel			R.Midfoot.Superior			R.Midfoot.Lateral			R.Toe			L.Heel			L.Midfoot.Lateral			L.Midfoot.Superior			L.Toe			L.Elbow			L.Wrist			R.Elbow			R.Wrist			
		X1	Y1	Z1	X2	Y2	Z2	X3	Y3	Z3	X4	Y4	Z4	X5	Y5	Z5	X6	Y6	Z6	X7	Y7	Z7	X8	Y8	Z8	X9	Y9	Z9	X10	Y10	Z10	X11	Y11	Z11	X12	Y12	Z12	X13	Y13	Z13	X14	Y14	Z14	X15	Y15	Z15	X16	Y16	Z16	X17	Y17	Z17	X18	Y18	Z18	X19	Y19	Z19	X20	Y20	Z20	X21	Y21	Z21	X22	Y22	Z22	X23	Y23	Z23	X24	Y24	Z24	X25	Y25	Z25	X26	Y26	Z26	X27	Y27	Z27	X28	Y28	Z28	X29	Y29	Z29	X30	Y30	Z30	X31	Y31	Z31	X32	Y32	Z32	X33	Y33	Z33	

89	57.532571428571	750.682055634605	1007.897506908199	491.524006761161	889.798015954975	1421.858553778568	265.542301453651	1026.811321027284	1355.088727889644	400.607800567383	989.544377173975	1440.272037429842	583.921392679493	911.099453760394	1489.774501991302	417.634109518170	992.766685938008	931.114571677972	568.859066664989	935.613335910240	957.791967492860	300.742129339471	989.925201431066	719.107720249069	544.254431399534	895.807486401457	622.243279886413	616.120734528411	953.105026508134	556.172890664812	532.472253812480	933.828257308833	459.351582833180	547.042111603851	1010.118806394455	762.074509837459	336.431703298604	938.038104481224	633.296127023459	277.983397251824	1036.749372986201	569.011152840668	337.459676923329	1047.483833377495	496.745247112967	343.481212151396	1021.067831686291	422.769699187825	337.390270061793	933.567153513787	306.296963930832	288.632724636220	989.518957914252	195.151330105937	354.945560305681	870.318650020312	386.784530565588	558.344391273589	768.225189201902	319.377168738522	629.011352274532	768.113145022264	213.544694888360	569.996346044994	581.148557924400	92.118739990313	553.495842664589	760.434101364436	101.687152332981	579.716327747309	663.346952495684	61.793979444101	622.578267199157	865.115286231059	36.451025478459	602.279567668513	864.663349799034	39.137743945867	396.663467615396	937.667796824528	36.565039853659	315.258276573137	1021.995239847543	96.976946744793	341.370799083997	1149.133075445933	43.930278755906	310.167954036666	760.654295651983	1086.730256221807	192.990345445326	759.797233671926	825.593409504794	211.491241229930	1157.857440904420	1141.834725305020	689.515922599544	1408.366529438406	1141.306006088498	628.939440315415	
90	57.552714285714	750.901934457565	1008.231243000062	484.965221368660	892.074380525495	1422.657808204332	260.833711902634	1027.505550852865	1355.957062281492	397.463958691983	988.016245968926	1440.916844499889	580.425827586769	911.427788242312	1490.546264258575	413.204945952592	992.376156254996	931.954300208668	564.623702479371	937.700281594698	958.139136165283	296.032176044765	991.545161186307	720.139789898467	541.030976337156	898.126920212100	622.923983287308	612.983971841666	956.995170076455	556.635017362700	530.208832306285	938.146580556177	458.763057534281	546.079253955352	1010.852287399396	761.328240147911	332.089344287970	937.693722825309	632.827803412602	274.581305024597	1035.668481023495	568.021906040034	334.511573870338	1045.802880349351	495.695918493133	341.103003161116	1018.715049178797	421.778026176181	335.446349002663	930.330267221783	305.807699628026	287.147938650694	984.919316031845	194.643120624484	354.339733287722	873.021355297625	387.250117728872	557.404116893041	768.996297553856	322.621144306151	627.695745108640	767.573735757486	216.027883623660	569.963525223965	578.149236116548	99.252748989036	553.714926066759	757.677711383935	102.854410108130	580.435232149805	659.108380998873	65.955642221786	622.719920340169	859.167774276591	36.126056319021	602.264768652610	858.648272054035	39.185918642379	396.649859697818	931.644733871138	36.538991313660	315.251329557779	1016.089374429979	96.815250543988	341.363301239803	1143.217372950720	43.379209128623	310.156714232020	769.983600435820	1085.101161259012	184.034038128426	774.093827251803	823.962633143245	200.128648808038	1149.111352051808	1137.417366014784	687.487921412817	1400.593383818810	1123.427289447178	631.509865795609	
91	57.572857142857	750.955810371314	1008.331898384730	478.470251274687	894.265738590236	1423.327878221322	256.227935185623	1027.997684795940	1356.695858667672	394.489719018873	986.163575379844	1441.384975069916	577.069188268372	911.574370229360	1491.179021203878	408.841152857917	991.775428266624	932.716558847442	560.471465358906	939.655573751944	958.351320046625	291.428186651201	993.741561885797	721.243576347299	537.780224436537	901.433694062514	623.381207929992	609.787559005938	962.063923458013	557.097376143737	527.798977895150	943.840544713270	458.028181962728	544.983227934853	1011.491451428499	760.464378834280	327.768514437553	937.303258673195	632.281647152024	271.207432314896	1034.562839548601	566.982290151216	331.566531513577	1044.093051432509	494.600182180143	338.705867033879	1016.331836398874	420.730129951805	333.477613147157	927.049553691635	305.275602515426	285.615450254017	980.285578599922	194.103731446200	353.685833634706	876.961354303842	387.632986301725	556.330881362976	770.930794678741	326.141560674632	626.238213103228	767.886690338991	218.838810546082	569.820152156235	575.892118335082	107.595136689967	553.792682341619	755.388933369412	104.442963594817	581.170049822968	655.271446033586	71.074830852213	622.772875687191	853.162032839524	35.680186324630	602.277895479192	852.629448521563	39.231124938946	396.614861451673	925.620777875210	36.501411286579	315.221216776182	1010.170002791440	96.657326837646	341.327545582793	1137.294605356194	42.876379411163	310.141168390404	780.218385158723	1083.252798670472	175.109045066937	789.604984839909	822.255125336889	188.946499476407	1139.088750128183	1132.654978139820	685.885200080098	1390.587991101129	1104.188618908732	634.620184496387	
92	57.593000000000	750.833203398987	1008.170441968480	472.080643871956	896.359689203433	1423.831281651333	251.745004784477	1028.270201323245	1357.269488775945	391.705935609953	983.968142305553	1441.643717442677	573.865103675304	911.529455242778	1491.639864886554	404.567910483846	990.947509913300	933.372034311229	556.436719513405	941.456132933347	958.408426653110	286.968350619707	996.515471420637	722.433136551126	534.498668892759	905.754799085476	623.629374822627	606.535706528249	968.311897458265	557.595919912190	525.225401973596	950.913960044773	457.208198078675	543.698823656341	1012.043143063221	759.487089681945	323.512285143483	936.905667300494	631.649565909957	267.884149236425	1033.485403476821	565.895278168651	328.650119972345	1042.422063266427	493.453126173186	336.310738843392	1013.972292489563	419.614465045679	331.506116669213	923.766950422207	304.705203635194	284.049976466787	975.625945256000	193.524690977930	353.000346564715	882.160562383542	387.967197601698	555.067219102423	774.081896548751	329.982229379724	624.599645209222	769.086171714744	222.051488439063	569.509868146863	574.486642426676	117.254966298888	553.643927084598	753.585982033214	106.568087608612	581.826446531754	651.915529793605	77.300248149167	622.674083432085	847.131159762201	35.105510024966	602.322086580076	846.607260891096	39.270546951348	396.559286146323	919.595341557436	36.455297493902	315.168419971637	1004.233211063299	96.509056264073	341.266737462986	1131.361574416448	42.435176436269	310.118295428375	791.342969985931	1081.233618053846	166.285602239571	806.339718626970	820.533704634243	178.042805846305	1127.800200667418	1127.621205956144	684.648938586999	1378.174643146937	1083.681994344344	638.214113892716	
